<svg xmlns="http://www.w3.org/2000/svg" viewBox="0 0 24 24" fill="currentColor"><path d="M12 2.163c3.204 0 3.584.012 4.85.07 1.366.062 2.633.334 3.608 1.308.974.974 1.246 2.242 1.308 3.608.058 1.266.07 1.646.07 4.85s-.012 3.584-.07 4.85c-.062 1.366-.334 2.633-1.308 3.608-.974.974-2.242 1.246-3.608 1.308-1.266.058-1.646.07-4.85.07zm0-2.163c-3.259 0-3.667.012-4.947.07-1.276.058-2.687.334-3.678 1.325-.991.991-1.267 2.402-1.325 3.678-.058 1.28-.07 1.688-.07 4.947s.012 3.667.07 4.947c.058 1.276.334 2.687 1.325 3.678.991.991 2.402 1.267 3.678 1.325 1.28.058 1.688.07 4.947.07s3.667-.012 4.947-.07c1.276-.058 2.687-.334 3.678-1.325.991-.991 1.267-2.402 1.325-3.678.058-1.28.07-1.688.07-4.947s-.012-3.667-.07-4.947c-.058-1.276-.334-2.687-1.325-3.678-.991-.991-2.402-1.267-3.678-1.325-1.28-.058-1.688-.07-4.947-.07zm0 5.838a6.162 6.162 0 1 0 0 12.324 6.162 6.162 0 0 0 0-12.324zm0 10.162a3.999 3.999 0 1 1 0-7.998 3.999 3.999 0 0 1 0 7.998zm6.406-11.845a1.44 1.44 0 1 0 0 2.88 1.44 1.44 0 0 0 0-2.88z"/></svg> 