<svg xmlns="http://www.w3.org/2000/svg" viewBox="0 0 24 24" fill="currentColor"><path d="M22.46 5.924c-.793.352-1.645.59-2.54.698a4.48 4.48 0 0 0 1.963-2.475 8.94 8.94 0 0 1-2.828 1.082A4.48 4.48 0 0 0 16.11 4c-2.48 0-4.49 2.014-4.49 4.495 0 .352.04.695.116 1.022C7.728 9.37 4.1 7.6 1.67 4.905a4.48 4.48 0 0 0-.61 2.262c0 1.56.794 2.936 2.003 3.744a4.48 4.48 0 0 1-2.034-.563v.057c0 2.18 1.55 4.002 3.604 4.418a4.48 4.48 0 0 1-2.027.077c.572 1.785 2.23 3.084 4.195 3.12A8.98 8.98 0 0 1 2 19.54a12.68 12.68 0 0 0 6.88 2.017c8.26 0 12.78-6.84 12.78-12.77 0-.195-.004-.39-.013-.583A9.14 9.14 0 0 0 24 4.59a8.93 8.93 0 0 1-2.54.698z"/></svg> 